<svg width="2566" height="474" viewBox="0 0 2566 474" fill="none" xmlns="http://www.w3.org/2000/svg">
<g clip-path="url(#clip0_273_48)">
<path d="M598.9 381V119.56H684.78V381H598.9ZM723.172 381V190.62H802.212V232.04C808.039 217.853 816.652 206.96 828.052 199.36C839.705 191.76 853.512 187.96 869.472 187.96C894.299 187.96 913.552 196.573 927.232 213.8C940.912 230.773 947.752 254.84 947.752 286V381H867.572V281.82C867.572 259.273 858.452 248 840.212 248C829.319 248 820.452 252.053 813.612 260.16C806.772 268.013 803.352 278.653 803.352 292.08V381H723.172ZM1061.66 384.04C1043.67 384.04 1028.98 381 1017.58 374.92C1006.43 368.84 998.327 360.607 993.26 350.22C988.193 339.833 985.66 328.18 985.66 315.26V237.74H961.34V190.62H991.36L1026.7 130.58H1065.84V190.62H1109.92V237.74H1065.84V304.24C1065.84 310.067 1067.74 314.627 1071.54 317.92C1075.34 320.96 1080.28 322.48 1086.36 322.48C1092.44 322.48 1098.52 320.96 1104.6 317.92L1110.3 370.74C1104.22 375.047 1096.49 378.34 1087.12 380.62C1077.75 382.9 1069.26 384.04 1061.66 384.04ZM1252.15 330.84C1259.5 330.84 1267.23 330.08 1275.33 328.56C1283.69 327.04 1292.18 324.253 1300.79 320.2L1309.91 369.22C1300.54 374.033 1290.28 377.707 1279.13 380.24C1268.24 382.773 1255.7 384.04 1241.51 384.04C1215.93 384.04 1194.39 379.86 1176.91 371.5C1159.69 363.14 1146.64 351.613 1137.77 336.92C1128.91 322.227 1124.47 305.253 1124.47 286C1124.47 266.24 1129.16 249.013 1138.53 234.32C1148.16 219.627 1160.95 208.227 1176.91 200.12C1192.87 192.013 1210.48 187.96 1229.73 187.96C1258.36 187.96 1280.27 196.953 1295.47 214.94C1310.67 232.673 1318.27 258.007 1318.27 290.94L1205.03 305.38C1213.39 322.353 1229.1 330.84 1252.15 330.84ZM1198.95 270.42L1258.61 257.88C1257.6 249.773 1254.81 243.82 1250.25 240.02C1245.69 235.967 1239.99 233.94 1233.15 233.94C1223.02 233.94 1214.91 237.487 1208.83 244.58C1203.01 251.42 1199.71 260.033 1198.95 270.42ZM1344.75 381V190.62H1423.79V238.12C1428.86 220.893 1436.71 208.227 1447.35 200.12C1458.25 192.013 1471.17 187.96 1486.11 187.96L1495.61 255.22C1489.53 254.46 1483.58 254.08 1477.75 254.08C1442.54 254.08 1424.93 268.52 1424.93 297.4V381H1344.75ZM1641.63 387.08C1614.27 387.08 1590.33 381.633 1569.81 370.74C1549.55 359.593 1533.71 344.013 1522.31 324C1511.17 303.987 1505.59 280.68 1505.59 254.08C1505.59 226.72 1511.42 202.527 1523.07 181.5C1534.98 160.473 1551.19 144.007 1571.71 132.1C1592.49 119.94 1616.3 113.86 1643.15 113.86C1673.05 113.86 1696.48 119.687 1713.45 131.34L1703.19 191.76C1695.85 188.213 1688.12 185.68 1680.01 184.16C1672.16 182.387 1664.69 181.5 1657.59 181.5C1636.82 181.5 1620.48 187.707 1608.57 200.12C1596.67 212.533 1590.71 229.76 1590.71 251.8C1590.71 272.573 1596.41 288.913 1607.81 300.82C1619.47 312.473 1635.55 318.3 1656.07 318.3C1664.18 318.3 1671.53 317.54 1678.11 316.02C1684.95 314.5 1693.31 311.713 1703.19 307.66L1713.83 367.7C1691.79 380.62 1667.73 387.08 1641.63 387.08ZM1739.23 381V130.58L1819.41 118.8V229.76C1824.73 216.587 1833.09 206.327 1844.49 198.98C1855.89 191.633 1869.57 187.96 1885.53 187.96C1910.35 187.96 1929.61 196.573 1943.29 213.8C1956.97 230.773 1963.81 254.84 1963.81 286V381H1883.63V281.82C1883.63 259.273 1874.51 248 1856.27 248C1845.37 248 1836.51 252.053 1829.67 260.16C1822.83 268.013 1819.41 278.653 1819.41 292.08V381H1739.23ZM2083.71 384.04C2066.23 384.04 2050.4 379.86 2036.21 371.5C2022.03 362.887 2010.75 351.107 2002.39 336.16C1994.29 321.213 1990.23 304.113 1990.23 284.86C1990.23 265.607 1994.29 248.76 2002.39 234.32C2010.75 219.88 2022.03 208.607 2036.21 200.5C2050.4 192.14 2066.23 187.96 2083.71 187.96C2096.13 187.96 2108.16 191.38 2119.81 198.22C2131.47 205.06 2140.46 216.333 2146.79 232.04V190.62H2225.83V381H2146.03V345.66C2139.95 358.073 2131.85 367.573 2121.71 374.16C2111.58 380.747 2098.91 384.04 2083.71 384.04ZM2108.41 324C2118.8 324 2127.67 320.327 2135.01 312.98C2142.36 305.38 2146.03 296.133 2146.03 285.24C2146.03 274.347 2142.36 265.48 2135.01 258.64C2127.67 251.547 2118.8 248 2108.41 248C2097.52 248 2088.4 251.673 2081.05 259.02C2073.71 266.367 2070.03 275.36 2070.03 286C2070.03 296.64 2073.71 305.633 2081.05 312.98C2088.4 320.327 2097.52 324 2108.41 324ZM2345.27 384.04C2327.29 384.04 2312.59 381 2301.19 374.92C2290.05 368.84 2281.94 360.607 2276.87 350.22C2271.81 339.833 2269.27 328.18 2269.27 315.26V237.74H2244.95V190.62H2274.97L2310.31 130.58H2349.45V190.62H2393.53V237.74H2349.45V304.24C2349.45 310.067 2351.35 314.627 2355.15 317.92C2358.95 320.96 2363.89 322.48 2369.97 322.48C2376.05 322.48 2382.13 320.96 2388.21 317.92L2393.91 370.74C2387.83 375.047 2380.11 378.34 2370.73 380.62C2361.36 382.9 2352.87 384.04 2345.27 384.04Z" fill="black"/>
<path d="M42.3135 237.461C42.3135 114.599 141.913 15 264.774 15V15C387.636 15 487.235 114.599 487.235 237.461V237.461C487.235 360.323 387.636 459.922 264.774 459.922V459.922C141.913 459.922 42.3135 360.323 42.3135 237.461V237.461Z" fill="url(#paint0_linear_273_48)"/>
<path d="M304.331 242.863L227.51 255.655C237.98 311.918 267.186 347.137 278.938 356.473L284.599 355.53C303.245 316.011 307.68 291.393 304.331 242.863Z" fill="url(#paint1_linear_273_48)"/>
<path d="M301.317 219.151L224.092 232.01C218.182 174.988 236.07 131.927 244.633 119.208L250.698 118.198C279.627 149.795 289.282 173.144 301.317 219.151Z" fill="url(#paint2_linear_273_48)"/>
<path d="M205.948 131.072C166.766 153.627 143.738 191.431 143.017 244.595L199.656 234.826C196.454 202.486 192.425 182.016 205.948 131.072Z" fill="url(#paint3_linear_273_48)"/>
<path d="M322.762 343.722C361.945 321.167 385.178 285.173 385.899 232.01L329.054 239.164C332.256 271.504 336.286 292.777 322.762 343.722Z" fill="url(#paint4_linear_273_48)"/>
<path d="M285.022 117.91C328.732 126.662 365.264 154.268 380.963 204.697L325.399 213.888C319.318 182.027 312.296 162.061 285.022 117.91Z" fill="url(#paint5_linear_273_48)"/>
<path d="M240.499 356.473C196.789 347.72 163.241 320.526 147.542 270.097L203.311 260.102C209.392 291.963 213.225 312.322 240.499 356.473Z" fill="url(#paint6_linear_273_48)"/>
<path d="M304.331 242.863L227.51 255.655C237.98 311.918 267.186 347.137 278.938 356.473L284.599 355.53C303.245 316.011 307.68 291.393 304.331 242.863Z" fill="url(#paint7_linear_273_48)"/>
<path d="M301.317 219.151L224.092 232.01C218.182 174.988 236.07 131.927 244.633 119.208L250.698 118.198C279.627 149.795 289.282 173.144 301.317 219.151Z" fill="url(#paint8_linear_273_48)"/>
<path d="M205.948 131.072C166.766 153.627 143.738 191.431 143.017 244.595L199.656 234.826C196.454 202.486 192.425 182.016 205.948 131.072Z" fill="url(#paint9_linear_273_48)"/>
<path d="M322.762 343.722C361.945 321.167 385.178 285.173 385.899 232.01L329.054 239.164C332.256 271.504 336.286 292.777 322.762 343.722Z" fill="url(#paint10_linear_273_48)"/>
<path d="M285.022 117.91C328.732 126.662 365.264 154.268 380.963 204.697L325.399 213.888C319.318 182.027 312.296 162.061 285.022 117.91Z" fill="url(#paint11_linear_273_48)"/>
<path d="M240.499 356.473C196.789 347.72 163.241 320.526 147.542 270.097L203.311 260.102C209.392 291.963 213.225 312.322 240.499 356.473Z" fill="url(#paint12_linear_273_48)"/>
<path d="M103.79 250.474C97.68 185.771 140.914 117.618 198.691 87.9378C255.863 58.5682 328.108 62.7961 391.389 136.267C394.896 140.339 401.079 140.683 405.198 137.036C409.317 133.388 409.813 127.13 406.306 123.058C337.377 43.0297 247.994 42.6019 182.612 76.1893C118.186 109.285 76.8758 179.506 84.3865 253.866L69.8582 256.406C62.834 257.633 59.4546 265.958 63.6782 271.617L96.6353 310.371C100.991 316.206 110.106 314.83 112.831 307.895C119.703 290.406 121.842 277.98 127.869 260.215C130.164 253.45 127.515 245.369 120.566 246.583L103.79 250.474Z" fill="url(#paint13_linear_273_48)"/>
<path d="M424.932 221.943C431.042 286.647 394.637 351.106 336.86 380.787C279.689 410.156 201.723 411.286 138.441 337.814C134.934 333.742 128.752 333.399 124.632 337.046C120.513 340.694 120.017 346.952 123.524 351.024C192.453 431.052 280.004 431.976 345.386 398.389C409.812 365.293 451.846 292.911 444.336 218.552L458.864 216.012C465.888 214.784 469.268 206.46 465.044 200.801L431.42 161.445C427.065 155.61 417.949 156.986 415.224 163.921C408.352 181.41 406.88 194.437 400.853 212.203C398.558 218.968 404.139 225.578 411.088 224.363L424.932 221.943Z" fill="url(#paint14_linear_273_48)"/>
</g>
<defs>
<linearGradient id="paint0_linear_273_48" x1="42.3135" y1="24.5589" x2="429.013" y2="538.131" gradientUnits="userSpaceOnUse">
<stop/>
<stop/>
<stop/>
<stop offset="0.0001"/>
<stop offset="1"/>
</linearGradient>
<linearGradient id="paint1_linear_273_48" x1="264.458" y1="117.91" x2="264.458" y2="356.473" gradientUnits="userSpaceOnUse">
<stop stop-color="#58B9FF"/>
<stop offset="1" stop-color="#0F5CFB"/>
</linearGradient>
<linearGradient id="paint2_linear_273_48" x1="264.458" y1="117.91" x2="264.458" y2="356.473" gradientUnits="userSpaceOnUse">
<stop stop-color="#58B9FF"/>
<stop offset="1" stop-color="#0F5CFB"/>
</linearGradient>
<linearGradient id="paint3_linear_273_48" x1="264.458" y1="117.91" x2="264.458" y2="356.473" gradientUnits="userSpaceOnUse">
<stop stop-color="#58B9FF"/>
<stop offset="1" stop-color="#0F5CFB"/>
</linearGradient>
<linearGradient id="paint4_linear_273_48" x1="264.458" y1="117.91" x2="264.458" y2="356.473" gradientUnits="userSpaceOnUse">
<stop stop-color="#58B9FF"/>
<stop offset="1" stop-color="#0F5CFB"/>
</linearGradient>
<linearGradient id="paint5_linear_273_48" x1="264.458" y1="117.91" x2="264.458" y2="356.473" gradientUnits="userSpaceOnUse">
<stop stop-color="#58B9FF"/>
<stop offset="1" stop-color="#0F5CFB"/>
</linearGradient>
<linearGradient id="paint6_linear_273_48" x1="264.458" y1="117.91" x2="264.458" y2="356.473" gradientUnits="userSpaceOnUse">
<stop stop-color="#58B9FF"/>
<stop offset="1" stop-color="#0F5CFB"/>
</linearGradient>
<linearGradient id="paint7_linear_273_48" x1="264.458" y1="117.91" x2="264.458" y2="356.473" gradientUnits="userSpaceOnUse">
<stop stop-color="#58B9FF"/>
<stop offset="1" stop-color="#0F5CFB"/>
</linearGradient>
<linearGradient id="paint8_linear_273_48" x1="264.458" y1="117.91" x2="264.458" y2="356.473" gradientUnits="userSpaceOnUse">
<stop stop-color="#58B9FF"/>
<stop offset="1" stop-color="#0F5CFB"/>
</linearGradient>
<linearGradient id="paint9_linear_273_48" x1="264.458" y1="117.91" x2="264.458" y2="356.473" gradientUnits="userSpaceOnUse">
<stop stop-color="#58B9FF"/>
<stop offset="1" stop-color="#0F5CFB"/>
</linearGradient>
<linearGradient id="paint10_linear_273_48" x1="264.458" y1="117.91" x2="264.458" y2="356.473" gradientUnits="userSpaceOnUse">
<stop stop-color="#58B9FF"/>
<stop offset="1" stop-color="#0F5CFB"/>
</linearGradient>
<linearGradient id="paint11_linear_273_48" x1="264.458" y1="117.91" x2="264.458" y2="356.473" gradientUnits="userSpaceOnUse">
<stop stop-color="#58B9FF"/>
<stop offset="1" stop-color="#0F5CFB"/>
</linearGradient>
<linearGradient id="paint12_linear_273_48" x1="264.458" y1="117.91" x2="264.458" y2="356.473" gradientUnits="userSpaceOnUse">
<stop stop-color="#58B9FF"/>
<stop offset="1" stop-color="#0F5CFB"/>
</linearGradient>
<linearGradient id="paint13_linear_273_48" x1="239.002" y1="57.4688" x2="299.718" y2="415.259" gradientUnits="userSpaceOnUse">
<stop stop-color="#58B9FF"/>
<stop offset="1" stop-color="#0F5CFB"/>
</linearGradient>
<linearGradient id="paint14_linear_273_48" x1="239.002" y1="57.4688" x2="299.718" y2="415.259" gradientUnits="userSpaceOnUse">
<stop stop-color="#58B9FF"/>
<stop offset="1" stop-color="#0F5CFB"/>
</linearGradient>
<clipPath id="clip0_273_48">
<rect width="2566" height="474" fill="white"/>
</clipPath>
</defs>
</svg>
